# xmcd
#
# Track frame offsets: 
#        150
#        13042
#        26672
#        41792
#        55497
#        68197
#        82865
#        96792
#        109587
#        124370
#        136687
#        149080
#        162842
#        176582
#        190717
#        204362
#
# Disc length: 2917 seconds
#
# Revision: 5
# Processed by: cddbd v1.5.2PL0 Copyright (c) Steve Scherf et al.
# Submitted via: ExactAudioCopy v0.99pb3
#
DISCID=dd0b6310
DTITLE=Nelson Goncalves - O Inesquecivel
DYEAR=2002
DGENRE=MPB
TTITLE0=Fica Comigo Esta Noite
TTITLE1=A Volta do Boemio
TTITLE2=Deusa da Minha Rua
TTITLE3=Maria Bethania
TTITLE4=Nem as Paredes Confesso
TTITLE5=Caminhemos
TTITLE6=Pensamento em Ti
TTITLE7=Normalista
TTITLE8=Hoje Quem Paga Sou Eu
TTITLE9=Negue
TTITLE10=Renuncia
TTITLE11=Meu Vicio eh Voce
TTITLE12=Vermelho 27
TTITLE13=A Camisola do Dia
TTITLE14=Naquela Mesa
TTITLE15=Matriz ou Filial
EXTD=
EXTT0=
EXTT1=
EXTT2=
EXTT3=
EXTT4=
EXTT5=
EXTT6=
EXTT7=
EXTT8=
EXTT9=
EXTT10=
EXTT11=
EXTT12=
EXTT13=
EXTT14=
EXTT15=
PLAYORDER=
